<svg width="14" height="14" viewBox="0 0 14 14" fill="none" xmlns="http://www.w3.org/2000/svg">
<path d="M1.18837 4.17014C1.248 4.11621 1.31882 4.07342 1.39677 4.04422C1.47473 4.01503 1.55829 4 1.64268 4C1.72707 4 1.81063 4.01503 1.88859 4.04422C1.96654 4.07342 2.03736 4.11621 2.09699 4.17014L7.00009 8.59804L11.9032 4.17014C11.9629 4.11626 12.0337 4.07351 12.1116 4.04435C12.1896 4.01518 12.2731 4.00017 12.3575 4.00017C12.4419 4.00017 12.5254 4.01518 12.6034 4.04435C12.6813 4.07351 12.7522 4.11626 12.8118 4.17014C12.8715 4.22403 12.9188 4.288 12.9511 4.35841C12.9834 4.42882 13 4.50428 13 4.58049C13 4.6567 12.9834 4.73216 12.9511 4.80257C12.9188 4.87298 12.8715 4.93695 12.8118 4.99084L7.4544 9.82986C7.39477 9.88379 7.32396 9.92658 7.246 9.95578C7.16805 9.98497 7.08448 10 7.00009 10C6.9157 10 6.83214 9.98497 6.75419 9.95578C6.67623 9.92658 6.60542 9.88379 6.54579 9.82986L1.18837 4.99084C1.12865 4.93698 1.08128 4.87301 1.04896 4.8026C1.01664 4.73219 1 4.65671 1 4.58049C1 4.50427 1.01664 4.42879 1.04896 4.35838C1.08128 4.28797 1.12865 4.224 1.18837 4.17014Z" fill="#A5A5A5"/>
</svg>
