<svg width="64" height="58" viewBox="0 0 64 58" fill="none" xmlns="http://www.w3.org/2000/svg">
<g filter="url(#filter0_d_601_3622)">
<path d="M25.2198 19.2269C25.2893 19.1549 25.372 19.0979 25.4629 19.059C25.5538 19.02 25.6513 19 25.7498 19C25.8482 19 25.9457 19.02 26.0367 19.059C26.1276 19.0979 26.2103 19.1549 26.2798 19.2269L32.0001 25.1307L37.7204 19.2269C37.79 19.155 37.8726 19.098 37.9636 19.0591C38.0545 19.0202 38.152 19.0002 38.2504 19.0002C38.3489 19.0002 38.4463 19.0202 38.5373 19.0591C38.6282 19.098 38.7109 19.155 38.7805 19.2269C38.8501 19.2987 38.9053 19.384 38.9429 19.4779C38.9806 19.5718 39 19.6724 39 19.774C39 19.8756 38.9806 19.9762 38.9429 20.0701C38.9053 20.164 38.8501 20.2493 38.7805 20.3211L32.5301 26.7731C32.4606 26.8451 32.3779 26.9021 32.287 26.941C32.1961 26.98 32.0986 27 32.0001 27C31.9017 27 31.8042 26.98 31.7132 26.941C31.6223 26.9021 31.5397 26.8451 31.4701 26.7731L25.2198 20.3211C25.1501 20.2493 25.0948 20.164 25.0571 20.0701C25.0194 19.9763 25 19.8756 25 19.774C25 19.6724 25.0194 19.5717 25.0571 19.4778C25.0948 19.384 25.1501 19.2987 25.2198 19.2269Z" fill="#020202"/>
</g>
<defs>
<filter id="filter0_d_601_3622" x="-1" y="-4" width="66" height="66" filterUnits="userSpaceOnUse" color-interpolation-filters="sRGB">
<feFlood flood-opacity="0" result="BackgroundImageFix"/>
<feColorMatrix in="SourceAlpha" type="matrix" values="0 0 0 0 0 0 0 0 0 0 0 0 0 0 0 0 0 0 127 0" result="hardAlpha"/>
<feOffset dy="6"/>
<feGaussianBlur stdDeviation="12.5"/>
<feColorMatrix type="matrix" values="0 0 0 0 0 0 0 0 0 0 0 0 0 0 0 0 0 0 0.12 0"/>
<feBlend mode="normal" in2="BackgroundImageFix" result="effect1_dropShadow_601_3622"/>
<feBlend mode="normal" in="SourceGraphic" in2="effect1_dropShadow_601_3622" result="shape"/>
</filter>
</defs>
</svg>
