<svg width="64" height="58" viewBox="0 0 64 58" fill="none" xmlns="http://www.w3.org/2000/svg">
<g filter="url(#filter0_d_601_4451)">
<path d="M38.7802 26.7731C38.7107 26.8451 38.628 26.9021 38.5371 26.941C38.4462 26.98 38.3487 27 38.2502 27C38.1518 27 38.0543 26.98 37.9633 26.941C37.8724 26.9021 37.7897 26.8451 37.7202 26.7731L31.9999 20.8693L26.2796 26.7731C26.21 26.845 26.1274 26.902 26.0364 26.9409C25.9455 26.9798 25.848 26.9998 25.7496 26.9998C25.6511 26.9998 25.5537 26.9798 25.4627 26.9409C25.3718 26.902 25.2891 26.845 25.2195 26.7731C25.1499 26.7013 25.0947 26.616 25.0571 26.5221C25.0194 26.4282 25 26.3276 25 26.226C25 26.1244 25.0194 26.0238 25.0571 25.9299C25.0947 25.836 25.1499 25.7507 25.2195 25.6789L31.4699 19.2269C31.5394 19.1549 31.6221 19.0979 31.713 19.059C31.8039 19.02 31.9014 19 31.9999 19C32.0983 19 32.1958 19.02 32.2868 19.059C32.3777 19.0979 32.4603 19.1549 32.5299 19.2269L38.7802 25.6789C38.8499 25.7507 38.9052 25.836 38.9429 25.9299C38.9806 26.0237 39 26.1244 39 26.226C39 26.3276 38.9806 26.4283 38.9429 26.5222C38.9052 26.616 38.8499 26.7013 38.7802 26.7731Z" fill="#020202"/>
</g>
<defs>
<filter id="filter0_d_601_4451" x="-1" y="-4" width="66" height="66" filterUnits="userSpaceOnUse" color-interpolation-filters="sRGB">
<feFlood flood-opacity="0" result="BackgroundImageFix"/>
<feColorMatrix in="SourceAlpha" type="matrix" values="0 0 0 0 0 0 0 0 0 0 0 0 0 0 0 0 0 0 127 0" result="hardAlpha"/>
<feOffset dy="6"/>
<feGaussianBlur stdDeviation="12.5"/>
<feColorMatrix type="matrix" values="0 0 0 0 0 0 0 0 0 0 0 0 0 0 0 0 0 0 0.12 0"/>
<feBlend mode="normal" in2="BackgroundImageFix" result="effect1_dropShadow_601_4451"/>
<feBlend mode="normal" in="SourceGraphic" in2="effect1_dropShadow_601_4451" result="shape"/>
</filter>
</defs>
</svg>
