<svg width="24" height="24" viewBox="0 0 24 24" fill="none" xmlns="http://www.w3.org/2000/svg">
<path fill-rule="evenodd" clip-rule="evenodd" d="M12 22L12.8413 21.1135C13.796 20.091 14.6547 19.1209 15.4187 18.1983L16.0493 17.4202C18.6827 14.1022 20 11.4688 20 9.52244C20 5.36783 16.4187 2 12 2C7.58133 2 4 5.36783 4 9.52244C4 11.4688 5.31733 14.1022 7.95067 17.4202L8.58133 18.1983C9.67125 19.5042 10.8116 20.7715 12 22Z" stroke="#A33AFF" stroke-width="1.5" stroke-linecap="round" stroke-linejoin="round"/>
<path d="M12 12.5985C13.8409 12.5985 15.3333 11.2029 15.3333 9.4813C15.3333 7.75971 13.8409 6.36409 12 6.36409C10.1591 6.36409 8.66667 7.75971 8.66667 9.4813C8.66667 11.2029 10.1591 12.5985 12 12.5985Z" stroke="#A33AFF" stroke-width="1.5" stroke-linecap="round" stroke-linejoin="round"/>
</svg>
