<svg width="80" height="24" viewBox="0 0 80 24" fill="none" xmlns="http://www.w3.org/2000/svg">
<path d="M20.84 0V0.408L10.024 24H1.216L0 0H4.8L5.536 19.4H7.304L15.896 0H20.84ZM34.584 24H29.784L31.392 16.8C31.44 16.568 31.464 16.392 31.464 16.248C31.464 15.856 31.336 15.544 31.072 15.304C30.808 15.064 30.4 14.944 29.856 14.944H24.664L22.664 24H17.976L23.272 0H32.08C33.248 0 34.28 0.152 35.176 0.464C36.072 0.776 36.824 1.184 37.432 1.696C38.04 2.208 38.496 2.824 38.792 3.528C39.088 4.24 39.24 4.976 39.24 5.76C39.24 7.432 38.84 8.784 38.04 9.824C37.24 10.864 36.016 11.648 34.368 12.176V12.792C35.056 12.864 35.592 13.096 35.96 13.496C36.328 13.896 36.512 14.408 36.512 15.024C36.512 15.256 36.488 15.48 36.44 15.712L34.584 24ZM25.632 10.632H29.928C31.192 10.632 32.232 10.312 33.04 9.672C33.848 9.032 34.256 8.16 34.256 7.064C34.256 6.192 34.008 5.52 33.52 5.04C33.032 4.56 32.288 4.32 31.28 4.32H27.016L25.632 10.632ZM55.96 10.64H46.288L47.76 4.32H55.608L55.392 0H44L38.664 24H43.392L45.32 14.96H56.176L55.96 10.64ZM79.2 0V0.408L68.384 24H63.624L67.632 14.96H61.208V14.952H60.496L59.736 0H64.536L64.936 10.64H69.536L74.256 0H79.2Z" fill="url(#paint0_linear_601_2289)"/>
<defs>
<linearGradient id="paint0_linear_601_2289" x1="39.6" y1="24" x2="39.6" y2="-1.43051e-06" gradientUnits="userSpaceOnUse">
<stop stop-color="#A33AFF"/>
<stop offset="1" stop-color="#FFA3E5"/>
</linearGradient>
</defs>
</svg>
