<svg width="102" height="32" viewBox="0 0 102 32" fill="none" xmlns="http://www.w3.org/2000/svg">
<path d="M26.8394 0V0.544L12.9097 32H1.56606L0 0H6.18182L7.1297 25.8667H9.40667L20.4721 0H26.8394ZM44.54 32H38.3582L40.4291 22.4C40.4909 22.0907 40.5218 21.856 40.5218 21.664C40.5218 21.1413 40.357 20.7253 40.017 20.4053C39.677 20.0853 39.1515 19.9253 38.4509 19.9253H31.7642L29.1885 32H23.1509L29.9715 0H41.3152C42.8194 0 44.1485 0.202667 45.3024 0.618667C46.4564 1.03467 47.4249 1.57867 48.2079 2.26133C48.9909 2.944 49.5782 3.76533 49.9594 4.704C50.3406 5.65333 50.5364 6.63467 50.5364 7.68C50.5364 9.90933 50.0212 11.712 48.9909 13.0987C47.9606 14.4853 46.3842 15.5307 44.2618 16.2347V17.056C45.1479 17.152 45.8382 17.4613 46.3121 17.9947C46.7861 18.528 47.023 19.2107 47.023 20.032C47.023 20.3413 46.9921 20.64 46.9303 20.9493L44.54 32ZM33.0109 14.176H38.5436C40.1715 14.176 41.5109 13.7493 42.5515 12.896C43.5921 12.0427 44.1176 10.88 44.1176 9.41867C44.1176 8.256 43.7982 7.36 43.1697 6.72C42.5412 6.08 41.583 5.76 40.2848 5.76H34.7933L33.0109 14.176ZM72.0697 14.1867H59.6133L61.5091 5.76H71.6164L71.3382 0H56.6667L49.7945 32H55.8836L58.3667 19.9467H72.3479L72.0697 14.1867ZM102 0V0.544L88.0703 32H81.94L87.1018 19.9467H78.8285V19.936H77.9115L76.9327 0H83.1145L83.6297 14.1867H89.5539L95.6327 0H102Z" fill="url(#paint0_linear_332_8765)"/>
<defs>
<linearGradient id="paint0_linear_332_8765" x1="51" y1="32" x2="51" y2="-1.90735e-06" gradientUnits="userSpaceOnUse">
<stop stop-color="#A33AFF"/>
<stop offset="1" stop-color="#FFA3E5"/>
</linearGradient>
</defs>
</svg>
